#!OML:ASF F:\VICON\USERDATA\INSTALL\rory3\rory3.ASF
:FULLY-SPECIFIED
:DEGREES
370
root -9.36821 15.8614 12.8285 21.0141 17.8226 10.2542
lowerback 28.005 0.289013 -0.407322
upperback 6.11666 0.554903 1.75807
thorax -8.65473 0.332683 2.00066
lowerneck -17.6267 -8.10566 -6.85431
upperneck 3.80019 -9.79097 5.21954
head 4.51954 -4.63851 1.80301
rclavicle -1.59028e-014 -2.22639e-014
rhumerus -15.9759 -30.9575 -56.2041
rradius 72.6666
rwrist 28.4767
rhand -35.1546 -10.8977
rfingers 7.12502
rthumb -8.29398 -40.7148
lclavicle -1.59028e-014 -2.22639e-014
lhumerus -40.1283 28.3452 56.2942
lradius 65.287
lwrist -5.50657
lhand -29.9856 42.2607
lfingers 7.12502
lthumb -3.30351 72.2149
rfemur -64.1724 -8.87114 17.0575
rtibia 77.3349
rfoot -16.4142 2.41657
rtoes 5.90016
lfemur -32.6283 -12.1676 -12.4616
ltibia 72.1535
lfoot 25.1042 -26.3601
ltoes -7.33606
371
root -9.3576 15.8915 12.8663 20.7095 17.5226 9.8092
lowerback 27.9679 0.218639 -0.0424803
upperback 6.08617 0.574848 1.853
thorax -8.66978 0.33402 1.88925
lowerneck -17.673 -7.99199 -6.7799
upperneck 4.06833 -9.64681 5.07016
head 4.59098 -4.57327 1.75428
rclavicle -1.27222e-014 -1.27222e-014
rhumerus -15.9784 -30.9434 -56.28
rradius 72.5606
rwrist 28.5212
rhand -35.2265 -10.8074
rfingers 7.12502
rthumb -8.36334 -40.6218
lclavicle -1.27222e-014 -1.27222e-014
lhumerus -39.9443 28.0539 56.4573
lradius 65.3346
lwrist -5.41864
lhand -30.5302 42.1288
lfingers 7.12502
lthumb -3.82949 72.0741
rfemur -63.7034 -8.74874 17.5064
rtibia 76.9558
rfoot -16.2517 2.76454
rtoes 6.39563
lfemur -33.5842 -11.5212 -12.3975
ltibia 73.3189
lfoot 25.469 -26.865
ltoes -6.37858
372
root -9.35022 15.9266 12.9142 20.2497 17.3427 9.06716
lowerback 28.0083 0.140211 0.560403
upperback 6.05515 0.664186 2.05418
thorax -8.72464 0.363749 1.73574
lowerneck -17.7193 -7.86958 -6.74001
upperneck 4.46846 -9.48698 4.91992
head 4.70505 -4.50047 1.70966
rclavicle 4.6118e-014 1.59028e-015
rhumerus -16.1116 -30.9237 -56.2521
rradius 72.4642
rwrist 28.5779
rhand -35.3233 -10.9965
rfingers 7.12502
rthumb -8.4568 -40.8072
lclavicle 4.6118e-014 1.59028e-015
lhumerus -39.6622 27.8159 56.6647
lradius 65.3011
lwrist -5.53997
lhand -30.5694 42.4076
lfingers 7.12502
lthumb -3.86728 72.3522
rfemur -63.0313 -8.55021 18.2903
rtibia 76.561
rfoot -16.149 2.99285
rtoes 6.88728
lfemur -34.5751 -10.8169 -12.0017
ltibia 74.5517
lfoot 25.0426 -27.4478
ltoes -7.23456
373
root -9.3448 15.9514 12.9577 19.8592 16.899 8.67392
lowerback 28.1131 0.20195 0.60158
upperback 6.02834 0.771054 2.21668
thorax -8.81189 0.413095 1.85792
lowerneck -17.7008 -7.74366 -6.71433
upperneck 4.67572 -9.31524 4.75428
head 4.74811 -4.42552 1.66953
rclavicle -3.18055e-015 -1.11319e-014
rhumerus -16.3483 -30.8038 -56.1912
rradius 72.5831
rwrist 28.6113
rhand -35.3773 -11.0262
rfingers 7.12502
rthumb -8.50895 -40.8348
lclavicle -3.18055e-015 -1.11319e-014
lhumerus -39.4833 27.6673 56.9008
lradius 65.3983
lwrist -5.585
lhand -30.6728 42.0005
lfingers 7.12502
lthumb -3.96718 71.9433
rfemur -62.4721 -8.32867 18.6721
rtibia 76.236
rfoot -15.9777 3.32099
rtoes 7.53304
lfemur -35.5265 -10.0733 -12.0475
ltibia 75.7544
lfoot 23.7758 -27.8079
ltoes -8.87812
374
root -9.32948 15.9736 13.0071 19.5647 16.3451 8.45184
lowerback 27.9633 0.225151 0.49056
upperback 5.98053 0.766381 2.24774
thorax -8.79303 0.411879 1.95848
lowerneck -17.4278 -7.49542 -6.31995
upperneck 4.71621 -9.05459 4.40268
head 4.66988 -4.3163 1.53636
rclavicle -6.36111e-015 3.02153e-014
rhumerus -16.5672 -30.5424 -56.3151
rradius 72.5468
rwrist 28.6435
rhand -35.4299 -10.8215
rfingers 7.12502
rthumb -8.5597 -40.628
lclavicle -6.36111e-015 3.02153e-014
lhumerus -39.5513 27.4837 56.8315
lradius 65.4653
lwrist -5.79492
lhand -30.7973 41.7145
lfingers 7.12502
lthumb -4.08736 71.6551
rfemur -62.0089 -8.19611 18.8636
rtibia 75.9783
rfoot -15.8494 3.63608
rtoes 6.81147
lfemur -36.4099 -9.34377 -12.404
ltibia 76.9492
lfoot 21.566 -28.088
ltoes -11.2031
375
root -9.28539 16.0228 13.1084 19.1147 16.1031 8.56612
lowerback 27.4415 0.0417706 0.575623
upperback 6.09589 0.5401 2.21299
thorax -8.39463 0.302198 1.94362
lowerneck -17.1883 -7.36872 -6.31235
upperneck 4.92557 -8.89907 4.31176
head 4.68628 -4.24802 1.52661
rclavicle 5.88403e-014 6.36111e-015
rhumerus -16.9174 -30.3441 -56.2738
rradius 72.4976
rwrist 28.7861
rhand -35.3891 -10.4088
rfingers 7.12502
rthumb -8.52027 -40.2169
lclavicle 5.88403e-014 6.36111e-015
lhumerus -39.552 27.3957 56.8292
lradius 65.3376
lwrist -6.02767
lhand -30.853 41.4621
lfingers 7.12502
lthumb -4.14122 71.4016
rfemur -60.8239 -8.91492 18.7237
rtibia 75.7053
rfoot -16.3415 4.20219
rtoes 4.50016
lfemur -36.5552 -9.31027 -13.325
ltibia 77.8424
lfoot 18.933 -27.6328
ltoes -14.3907
376
root -9.2946 16.0302 13.1239 18.7382 15.1618 8.45712
lowerback 27.9328 0.36962 -0.0139661
upperback 5.98009 0.803418 2.26532
thorax -8.78589 0.437877 2.25754
lowerneck -16.9931 -7.30509 -6.48147
upperneck 5.07099 -8.80307 4.3998
head 4.70877 -4.2008 1.59258
rclavicle -1.90833e-014 2.22639e-014
rhumerus -17.58 -30.2045 -56.1048
rradius 72.9513
rwrist 28.8922
rhand -35.3477 -10.0801
rfingers 7.12502
rthumb -8.48032 -39.8899
lclavicle -1.90833e-014 2.22639e-014
lhumerus -39.3545 27.3448 56.9598
lradius 65.2289
lwrist -6.19921
lhand -30.8663 41.5086
lfingers 7.12502
lthumb -4.15402 71.4478
rfemur -60.5922 -8.14838 18.7106
rtibia 75.5425
rfoot -15.1294 4.94636
rtoes 15.3937
lfemur -37.6487 -8.1947 -13.7445
ltibia 79.0621
lfoot 17.0078 -27.2684
ltoes -17.2846
377
root -9.29328 16.0415 13.1604 18.3864 14.3764 8.3001
lowerback 27.9834 0.565935 -0.276319
upperback 5.95621 0.970157 2.21722
thorax -8.84781 0.519641 2.29843
lowerneck -16.8201 -7.13496 -6.40352
upperneck 5.20319 -8.60441 4.37383
head 4.70909 -4.10495 1.59579
rclavicle -4.29375e-014 -3.02153e-014
rhumerus -18.1147 -30.2062 -56.1464
rradius 73.2916
rwrist 28.9503
rhand -35.2474 -10.4017
rfingers 7.12502
rthumb -8.38353 -40.2153
lclavicle -4.29375e-014 -3.02153e-014
lhumerus -39.113 27.1271 57.0198
lradius 65.2337
lwrist -6.37133
lhand -30.7969 42.0975
lfingers 7.12502
lthumb -4.08702 72.038
rfemur -60.2028 -7.68409 18.785
rtibia 75.3565
rfoot -14.9322 5.30735
rtoes 16.8131
lfemur -38.6156 -7.22751 -14.1719
ltibia 80.1625
lfoot 14.9537 -26.4765
ltoes -19.4906
378
root -9.28106 16.0622 13.1971 17.9926 13.935 7.99535
lowerback 27.9841 0.524517 -0.149347
upperback 5.91247 0.950479 2.21585
thorax -8.89499 0.506597 2.23068
lowerneck -16.5787 -6.95465 -6.30091
upperneck 5.30227 -8.40846 4.42494
head 4.69135 -4.00596 1.62102
rclavicle 7.95139e-015 -4.77083e-015
rhumerus -18.2365 -30.1481 -56.2712
rradius 73.0809
rwrist 28.9877
rhand -35.3261 -10.4269
rfingers 7.12502
rthumb -8.45952 -40.2375
lclavicle 7.95139e-015 -4.77083e-015
lhumerus -39.1929 26.7306 56.9089
lradius 65.5233
lwrist -6.23647
lhand -30.6828 42.3019
lfingers 7.12502
lthumb -3.97682 72.2445
rfemur -59.6302 -7.55578 19.0717
rtibia 75.1307
rfoot -14.8394 5.58703
rtoes 17.0738
lfemur -39.6395 -6.5475 -14.4038
ltibia 81.3092
lfoot 12.842 -25.5583
ltoes -21.412
